<svg id="Layer_3" data-name="Layer 3" xmlns="http://www.w3.org/2000/svg" viewBox="0 0 258.41 54.18"><defs><style>.cls-1{fill:#fff;}.cls-1,.cls-2{stroke:#231f20;stroke-linecap:round;stroke-miterlimit:10;}.cls-2{fill:#fdfeff;}</style></defs><title>Taskbar Logo</title><path d="M11.81,5.58A108.43,108.43,0,0,0,8.34,24,48.82,48.82,0,0,0,9.8,41.56c1.4,5,3.76,10.26,9.06,12a12.93,12.93,0,0,0,7.26.42c2.6-.73,3.76-2.71,4.8-5a26.21,26.21,0,0,0,2.24-9.27c.22-3.71-.53-7.3-1-11-.16-1.12-2.08-.86-2,.27.44,5.29.84,11.11-.46,16.31C29.13,47.52,28.32,50,26,50.8a10.42,10.42,0,0,1-6.27-.25C15.21,49.2,13.37,44,12.06,40A49.12,49.12,0,0,1,9.82,24.52a55.6,55.6,0,0,1,.75-9.37c.54-3.14,1.27-6.25,2.1-9.33a.45.45,0,0,0-.86-.24Z" transform="translate(0.02 -0.2)"/><path d="M70.57,13.41c-2.15,3.6-6,5.57-9.88,6.8-4.1,1.31-8.89,2.34-13.11,1.08a19.62,19.62,0,0,1-5.45-2.73C40.52,17.44,38.67,16,38.37,14c-.25-1.8.16-4.83,1.87-5.82A8.76,8.76,0,0,1,46.1,7.3c3.6.74,6.29,3.35,8.57,6.08a19.09,19.09,0,0,1,4.69,10.77c.47,6.81-1.44,15.76-8.81,18.18a10.51,10.51,0,0,1-6.44-.3,14.19,14.19,0,0,1-2.68-1c-.85-.47-1.63-1-2.43-1.57a14.59,14.59,0,0,1-3.77-4.31,17.19,17.19,0,0,1-2.1-5.46c-.31-1.48-2.61-.86-2.28.63A19.39,19.39,0,0,0,33.06,36a25.89,25.89,0,0,0,1.66,2.59A20.55,20.55,0,0,0,37,40.89c3.21,3.17,7.62,5.77,12.26,5.64,10.41-.28,15.43-12,14.62-21.08A22.76,22.76,0,0,0,62,18.14a29.83,29.83,0,0,0-4.37-6.38C55,8.46,51.38,5.26,47.05,4.55a11.25,11.25,0,0,0-6.81.91,6.53,6.53,0,0,0-3.75,4.93C36,12.66,36,15.1,37.42,17a16.14,16.14,0,0,0,5.43,4.07,18.1,18.1,0,0,0,7.41,2.21,31.73,31.73,0,0,0,8.6-1.16C64,21,68.92,18.77,71.34,13.86a.45.45,0,0,0-.77-.45Z" transform="translate(0.02 -0.2)"/><path d="M68.45,28.2C72,26.27,75.83,24,78.33,20.66c2.07-2.73,3.12-6.58.71-9.45A6.26,6.26,0,0,0,70,10.8c-3.32,2.9-2.9,8.26-3,12.26a159.54,159.54,0,0,0,.47,16.36c.23,2.78,4.6,2.79,4.36,0-.43-4.87-.68-9.76-.71-14.65,0-2.37,0-4.76.13-7.12a9.81,9.81,0,0,1,1.69-5.42c1.44-1.75,3.63-1.48,5,.31a6.42,6.42,0,0,1,.36,6.28,14.07,14.07,0,0,1-4.65,5.05A48.14,48.14,0,0,1,68,27.43c-.51.28-.06,1,.44.77Z" transform="translate(0.02 -0.2)"/><path d="M69.67,39.29a22,22,0,0,1,1.47-3.87c.27-.54.69-1,1-1.48s.78-1.14,1.18-1.69A29.58,29.58,0,0,1,76,29.18c.8-.83,1.85-2,3-2.27.09,0,.27,0,.35,0,.27-.1-.07.27,0-.07l-.16-.09q.2.32.06,0s0-.23-.13.05a5.59,5.59,0,0,0-.15,1c-.08.39-.17.77-.26,1.16-.34,1.39-.64,2.78-1,4.18-.57,2.51-.54,6.65,2.27,7.88s5.45-1.8,6.76-4c.64-1.07-1-2-1.66-1-.54.79-1.35,2.37-2.48,2.32s-1.41-.6-1.5-1.6c-.27-2.78.78-5.5,1.11-8.23.16-1.31.11-2.91-1.2-3.66-1-.55-2.53-.06-3.44.41-2.23,1.15-3.94,3.52-5.27,5.58a19.12,19.12,0,0,0-1.15,2c-.34.69-.51,1.39-.81,2.08a37.29,37.29,0,0,0-1.54,4.09.45.45,0,0,0,.86.24Z" transform="translate(0.02 -0.2)"/><path d="M94.85,27.47l-3.07-2.61c-.89-.75-1.64-1.28-2.85-1-2.28.56-3.1,3.1-3.62,5.11a15,15,0,0,0-.46,4.11,12.07,12.07,0,0,0,.51,3.78,4.2,4.2,0,0,0,2.58,2.77,3.2,3.2,0,0,0,1.84,0,4.13,4.13,0,0,0,1.58-1.18c.93-.9,1.82-1.9,2.67-2.87a17.34,17.34,0,0,0,2.34-3.24c.48-.91-.9-1.73-1.4-.81a12.67,12.67,0,0,1-2,2.77c-.43.45-.87.87-1.32,1.3a4.71,4.71,0,0,1-1.25,1,1.66,1.66,0,0,1-.37.14c.14,0,.11,0-.1,0-.47,0-.28,0-.56-.13.08,0,.24.31,0,0s-.11-.21,0,0l-.12-.35a6.14,6.14,0,0,1-.18-.74q0,.31,0,0l-.09-.66c-.07-.52-.13-1.12-.16-1.68-.06-1.29-.07-2.61,0-3.9a8,8,0,0,1,.48-2.85,3.65,3.65,0,0,1,.5-.91c.49-.57.89-.05,1.36.3l3.21,2.43c.4.3.93-.38.54-.7Z" transform="translate(0.02 -0.2)"/><path d="M104.71,35.28a4.54,4.54,0,0,1-2.32,2,2.54,2.54,0,0,1-.77.18,1.27,1.27,0,0,1-.64-.25,3.91,3.91,0,0,1-1-.89l-.24-.27c-.21-.23.07.16-.07-.09s-.28-.48-.4-.74c.16.33,0,0,0-.08s-.07-.24-.1-.36-.12-.53,0-.26,0,.13,0,0a5.54,5.54,0,0,0-.07-.57c0-.37,0,.4,0-.06,0-.15,0-.3,0-.45,0-.35,0-.7,0-1.05,0-.65,0-1.3,0-2a1.81,1.81,0,0,0-3.61,0c0,.81,0,1.61,0,2.41a8.17,8.17,0,0,0,.4,2.36c.56,1.44,1.46,3,3,3.46a3.72,3.72,0,0,0,2,0,8.06,8.06,0,0,1,.91-.3,4.41,4.41,0,0,0,1-.24,5.51,5.51,0,0,0,2.73-2.4.45.45,0,0,0-.77-.45Z" transform="translate(0.02 -0.2)"/><path d="M104.12,11c-.55,4.19-.62,8.4-.8,12.62a78.28,78.28,0,0,0,.5,12c.35,3.23.7,7.48,3.53,9.58a4.46,4.46,0,0,0,4.06.45c1.24-.47,2.09-1.86,2.85-2.91a45.58,45.58,0,0,0,6.2-10.81c.37-1-1.27-1.47-1.6-.44-1.26,3.95-2.8,7.8-5.65,10.9a3.75,3.75,0,0,1-2.12,1.27,2,2,0,0,1-2.14-1c-1-1.41-1.06-3.59-1.34-5.25a77.5,77.5,0,0,1-.67-12.83c0-2.21-.18-4.42-.19-6.64a59.65,59.65,0,0,0-.49-6.94,1.07,1.07,0,0,0-2.14,0Z" transform="translate(0.02 -0.2)"/><path d="M85.15,25c1-.6,1.33-1.93,2.1-2.77a11.46,11.46,0,0,1,3-2.33c2.9-1.52,6-.6,9,.1,2.72.64,5.29,1.72,8.11,1.86A9.1,9.1,0,0,0,114,19.67c.51-.45-.16-1.35-.74-1-5.57,3.86-11.84-1.46-17.42-2.14a11.84,11.84,0,0,0-8.26,1.7,9.18,9.18,0,0,0-2.57,2.66c-.62.93-1.53,2.39-1.09,3.53a.82.82,0,0,0,1.19.49Z" transform="translate(0.02 -0.2)"/><path d="M158.7,45.84c.67-1.35.39-3.15.39-4.62s-.1-3.26-.27-4.87c-.36-3.49-.76-7-1.18-10.46-.84-6.88-1.69-13.8-3-20.6A1.84,1.84,0,0,0,152.35,4a1.87,1.87,0,0,0-1.28,2.25c.94,6.79,2.18,13.55,3.21,20.33q.75,5,1.42,9.93c.23,1.69.52,3.38.9,5,.32,1.43.44,3.2,1.37,4.38a.46.46,0,0,0,.73-.1Z" transform="translate(0.02 -0.2)"/><path d="M158.73,36.14c.09-9.08,5.56-16.56,11.68-22.79a32.87,32.87,0,0,1,4.63-4c1.64-1.14,3.61-2.4,5.68-2.4a3.28,3.28,0,0,1,3.34,3.66,7.58,7.58,0,0,1-2.4,4.6,80,80,0,0,1-10.76,9.64c-1.64,1.21,0,4,1.61,2.75A63,63,0,0,0,183.79,17c1.29-1.59,2.64-3.47,2.61-5.62a6.56,6.56,0,0,0-2.25-4.78c-3.62-3-8.37.15-11.36,2.54A45.65,45.65,0,0,0,163,20.26c-3,4.76-5.14,10.2-5.17,15.88a.45.45,0,0,0,.89,0Z" transform="translate(0.02 -0.2)"/><path d="M171.49,26.66c4.37-2.39,9.56-1.28,13.51,1.45a12.69,12.69,0,0,1,5.63,11.69c-.53,5.07-4.58,8.21-9.09,9.82A30.73,30.73,0,0,1,174,51.49a27.69,27.69,0,0,1-7.76-.46c-5.41-1-11.13-3.54-15-7.59-.46-.49-1.24.14-.92.71,1.32,2.3,4.25,3.8,6.51,5a41.57,41.57,0,0,0,8,3.41c5.43,1.59,12.06,1.92,17.43-.06s10.23-5.66,10.94-11.75c.61-5.27-2.2-10.24-6.29-13.4a14.75,14.75,0,0,0-16-1.49c-.5.28,0,1,.45.77Z" transform="translate(0.02 -0.2)"/><path d="M158.1,34.24q.08,3.3-.06,6.6c0,.57.86.57.89,0q.13-3.3.06-6.6a.45.45,0,0,0-.89,0Z" transform="translate(0.02 -0.2)"/><path d="M196.07,23.21a22,22,0,0,0,4.57-4.66,12.67,12.67,0,0,0,2.87-5.85,5.68,5.68,0,0,0-1.6-5.18c-1.39-1.24-3-1.54-4.51-.32a9.73,9.73,0,0,0-3.1,5.32,39.51,39.51,0,0,0-1.11,7.57A92.16,92.16,0,0,0,194,36.61c.3,2.43.57,5.33,2,7.37a4,4,0,0,0,2.74,1.76c1.48.13,2-.68,2.89-1.66a.53.53,0,0,0-.64-.83c-2.82,1.59-3.38-2.36-3.57-4.22-.26-2.43-.58-4.84-.81-7.27a89.11,89.11,0,0,1-.18-15.06,21.65,21.65,0,0,1,1.16-6.17c.38-1,1.05-2.39,2.19-2.67,1.49-.36,2.46,1.22,2.75,2.44.59,2.43-.56,4.83-1.92,6.78a22.17,22.17,0,0,1-5,5.36c-.46.34,0,1.11.45.77Z" transform="translate(0.02 -0.2)"/><path d="M199.92,45.19a8.31,8.31,0,0,0,3.25-3.27c1-1.58,1.77-3.25,2.63-4.88.27-.51-.5-1-.77-.45-.82,1.56-1.6,3.15-2.5,4.66a7.61,7.61,0,0,1-3.06,3.17c-.51.25-.06,1,.45.77Z" transform="translate(0.02 -0.2)"/><path d="M211.87,32.59a9.06,9.06,0,0,1-1.41,4.47,1.41,1.41,0,0,1-1.86.54,2,2,0,0,1-1-1.72,38.72,38.72,0,0,1,.14-4.93c0-1.77.26-3.52.37-5.29a1.28,1.28,0,0,0-2.51-.33,23,23,0,0,0-.41,3.53,22.08,22.08,0,0,0,0,3.45c.19,1.86.44,4.19,1.77,5.62a3,3,0,0,0,2.09,1A2.6,2.6,0,0,0,211,37.92a9.48,9.48,0,0,0,1.78-5.33c0-.58-.85-.57-.89,0Z" transform="translate(0.02 -0.2)"/><path d="M205.78,37.19l.64-1.49a.53.53,0,0,0,0-.35.46.46,0,0,0-.26-.3.45.45,0,0,0-.36,0,.49.49,0,0,0-.26.3L205,36.84a.47.47,0,0,0,0,.35.55.55,0,0,0,.22.18.41.41,0,0,0,.29,0,.41.41,0,0,0,.26-.2Z" transform="translate(0.02 -0.2)"/><path d="M211.79,24.24c-.64,2-.36,4.06-.24,6.09s.37,4.17.67,6.25a1.49,1.49,0,0,0,1.82,1,1.5,1.5,0,0,0,1-1.81c-.36-1.93-.67-3.88-.94-5.82s-.26-3.92-1-5.74a.7.7,0,0,0-1.33,0Z" transform="translate(0.02 -0.2)"/><path d="M214,35.46a35.91,35.91,0,0,1,.62-4.37,30.08,30.08,0,0,1,1.24-3.91,13.62,13.62,0,0,1,1.72-3.66,4.66,4.66,0,0,1,2.78-1.94c.42,0,.46,0,.45.42s-.06.69-.1,1c-.09.72-.22,1.43-.35,2.14a14.56,14.56,0,0,0-.13,4.32c.31,2.62.62,5.76,2.85,7.53a4.24,4.24,0,0,0,6.28-1.49.75.75,0,0,0-1.17-.91A2,2,0,0,1,226,35a2.93,2.93,0,0,1-1.6-2.07,18.85,18.85,0,0,1-1-4c-.14-1.42-.22-2.86-.31-4.28-.08-1.22,0-3-.89-3.94s-2.08-.68-3-.25c-2.25,1-3.46,3.25-4.25,5.46a35.36,35.36,0,0,0-1.14,4.78,37.93,37.93,0,0,0-.65,4.75c-.05.57.84.57.89,0Z" transform="translate(0.02 -0.2)"/><path d="M249.35,38.45c3.5-11.85,6.12-24,9-36,.54-2.26-2.87-3.21-3.48-1-3.26,12-6.1,24.3-7.32,36.71-.1,1.07,1.54,1.22,1.82.25Z" transform="translate(0.02 -0.2)"/><path d="M206.41,15.57a2.37,2.37,0,0,0-1.42,0l-.34.13a2,2,0,0,1-.36.17l.05,0-.19.08L204,16l-.41.32a2.91,2.91,0,0,0-.8,1.48,4.15,4.15,0,0,0,0,1.72,3.43,3.43,0,0,0,2.05,2.5,2.76,2.76,0,0,0,3.14-.49,4.15,4.15,0,0,0,.75-1.3,2.41,2.41,0,0,0,.1-1.5.48.48,0,1,0-.93.25,1.23,1.23,0,0,1-.13.73.88.88,0,0,1-.12.21l0,0a1.32,1.32,0,0,1-.2.12l-.09.05c.09-.05,0,0,0,0l-.2.05c-.11,0,.07,0,.07,0h-.76c-.13,0,.11,0,.1,0s-.2,0-.25,0l-.21-.07c-.19-.05.39.17,0,0l-.07,0h0a3.58,3.58,0,0,0-.42-.25l.09.07a.52.52,0,0,0-.11-.1,1.63,1.63,0,0,0-.17-.2s.17.23,0,.06l-.07-.09-.12-.19a2.53,2.53,0,0,0-.12-.23s.08.23,0,.11l-.06-.18-.06-.21s0-.08,0-.11,0,.23,0,.08a4.51,4.51,0,0,1,0-.52c0-.13,0,.11,0,.11s0-.08,0-.11a2.33,2.33,0,0,1,.07-.25l0-.1c0-.12,0,.1,0,.1s.13-.23.14-.26.17-.32.26-.47a1.25,1.25,0,0,0,.12-.27c0,.05-.13.22-.07.16l.17-.19a2,2,0,0,1,.21-.19c-.1.08.1-.06.14-.08a4.43,4.43,0,0,1,.46-.29.5.5,0,0,0-.11-.9Z" transform="translate(0.02 -0.2)"/><path d="M208.69,18.15a2.65,2.65,0,0,0-2.14-2.39.5.5,0,0,0-.34,0,.45.45,0,0,0-.2.27.44.44,0,0,0,.31.54,2,2,0,0,1,.33.09l.08,0s-.09-.05,0,0l.15.07.15.1.07,0,0,0,0,0s.11.09.13.11l.11.12a.69.69,0,0,1,.11.13c.07.07,0-.09,0,0l.05.07c.06.1.12.19.17.29l0,.05,0-.05s0,.06,0,.08a1.42,1.42,0,0,0,.05.16c0,.05,0,.11,0,.17s0,.12,0,0,0,0,0,0a.45.45,0,1,0,.89,0Z" transform="translate(0.02 -0.2)"/><path d="M235.45,42.86a2.37,2.37,0,0,0-1.42,0l-.34.12a1.69,1.69,0,0,1-.36.17l0,0-.19.08-.11.07a4.23,4.23,0,0,0-.41.33,3,3,0,0,0-.8,1.48,4.15,4.15,0,0,0,0,1.72,3.49,3.49,0,0,0,2,2.5,2.8,2.8,0,0,0,3.14-.49,4.2,4.2,0,0,0,.75-1.31,2.34,2.34,0,0,0,.1-1.5.48.48,0,0,0-.93.26,1.27,1.27,0,0,1-.12.72,1.59,1.59,0,0,1-.13.22s-.09.06,0,0a1.37,1.37,0,0,1-.2.13l-.09,0c.09,0,0,0,0,0l-.2,0c-.11,0,.07,0,.07,0h-.76c-.13,0,.11,0,.1,0s-.2,0-.25,0l-.21-.07c-.18,0,.39.17,0,0l-.07,0c.08,0,.09,0,0,0a4.36,4.36,0,0,0-.41-.24s.17.15.08.06l-.11-.1a1.54,1.54,0,0,0-.17-.19s.17.22.05.06l-.07-.09-.12-.19a1.67,1.67,0,0,0-.12-.23l0,.11-.06-.18-.06-.22s0-.07,0-.11,0,.24,0,.08a4.51,4.51,0,0,1,0-.52v.12s0-.08,0-.11a1.82,1.82,0,0,1,.07-.25.49.49,0,0,1,0-.11c0-.11,0,.1-.05.1s.13-.22.14-.25l.26-.48a1,1,0,0,0,.12-.26s-.13.21-.07.15l.17-.18a1.29,1.29,0,0,1,.21-.19c-.1.08.1-.06.14-.09s.3-.2.46-.29a.5.5,0,0,0-.11-.9Z" transform="translate(0.02 -0.2)"/><path d="M237.73,45.45a2.67,2.67,0,0,0-2.14-2.4.45.45,0,0,0-.34.05.43.43,0,0,0-.2.26.45.45,0,0,0,.31.55l.34.08.07,0h0l.15.08.15.09.07.05h0s0,0,0,0l.13.11.12.11a.69.69,0,0,0,.11.13c.06.08-.06-.08,0,0l0,.07a2.75,2.75,0,0,1,.17.29l0,0,0-.06a.19.19,0,0,0,0,.08s0,.11,0,.16,0,.12,0,.18,0,.11,0,0,0,0,0,.06a.45.45,0,0,0,.89,0Z" transform="translate(0.02 -0.2)"/><path d="M249,42.66a2.37,2.37,0,0,0-1.42,0l-.33.13a1.76,1.76,0,0,1-.37.17l0,0-.18.08a.5.5,0,0,0-.12.08l-.41.32a3,3,0,0,0-.79,1.48,4,4,0,0,0,0,1.72,3.45,3.45,0,0,0,2.05,2.5,2.76,2.76,0,0,0,3.14-.49,4.15,4.15,0,0,0,.75-1.3,2.34,2.34,0,0,0,.1-1.5.49.49,0,0,0-.59-.34.5.5,0,0,0-.34.59,1.3,1.3,0,0,1-.12.73,1.48,1.48,0,0,1-.13.21s-.09.07,0,0l-.21.12-.09,0c.09,0,0,0,0,0l-.2,0c-.1,0,.07,0,.07,0H249c-.13,0,.11,0,.1,0s-.2,0-.25-.05l-.21-.07c-.18,0,.39.17,0,0l-.07,0c.08,0,.09,0,0,0a4.5,4.5,0,0,0-.41-.25l.08.07-.1-.1c-.06-.06-.12-.15-.18-.2s.17.23.05.06l-.07-.09-.12-.19a2.53,2.53,0,0,0-.12-.23s.08.23,0,.11l-.06-.18L247.6,46a.36.36,0,0,0,0-.11c0-.15,0,.23,0,.08a4.51,4.51,0,0,1,0-.52c0-.13,0,.11,0,.11s0-.08,0-.11a2.33,2.33,0,0,1,.07-.25.42.42,0,0,1,0-.1c0-.12,0,.1,0,.1s.12-.23.14-.26.16-.32.25-.47.14-.24.12-.27-.12.22-.07.16l.17-.19.21-.19c-.1.08.1-.06.14-.08a4.43,4.43,0,0,1,.46-.29.5.5,0,0,0-.11-.9Z" transform="translate(0.02 -0.2)"/><path d="M251.26,45.24a2.65,2.65,0,0,0-2.13-2.39.52.52,0,0,0-.35,0,.45.45,0,0,0-.2.27.44.44,0,0,0,.31.54,2.14,2.14,0,0,1,.34.09l.07,0s-.09,0,0,0l.15.07.15.1.07,0,0,0s0,0,0,0,.11.09.13.11l.12.12.11.13c.06.07-.06-.09,0,0l0,.07c.06.1.12.19.17.29l0,0,0,0a.26.26,0,0,0,0,.08s0,.1,0,.16,0,.11,0,.17,0,.12,0,0,0,0,0,.05a.46.46,0,0,0,.44.45.45.45,0,0,0,.45-.45Z" transform="translate(0.02 -0.2)"/><circle class="cls-1" cx="5.96" cy="10.28" r="3.19"/><circle class="cls-1" cx="4.2" cy="20.24" r="3.19"/><circle class="cls-1" cx="3.69" cy="30.91" r="3.19"/><circle class="cls-1" cx="5.04" cy="41.07" r="3.19"/><circle class="cls-1" cx="8.73" cy="50.48" r="3.19"/><circle class="cls-2" cx="147.01" cy="9.29" r="3.19"/><circle class="cls-2" cx="148.37" cy="18.6" r="3.19"/><circle class="cls-2" cx="149.86" cy="28.52" r="3.19"/><circle class="cls-2" cx="151.53" cy="38.58" r="3.19"/><path d="M125.44,20.87a15.55,15.55,0,0,0-.41,4.86,16.87,16.87,0,0,0,.43,4.6,1.81,1.81,0,0,0,1,1.32,1.39,1.39,0,0,0,1.52-.47,11.65,11.65,0,0,0,2-3.88c.19-.53-.65-.76-.84-.23a12.22,12.22,0,0,1-1.66,3.13c-.1.13-.34.48-.55.39s-.24-.38-.28-.51a14.36,14.36,0,0,1-.29-1.72c-.39-2.47.13-5-.24-7.49,0-.36-.57-.3-.66,0Z" transform="translate(0.02 -0.2)"/><path d="M130.14,25.82a9.08,9.08,0,0,0,1-.29A5.67,5.67,0,0,0,132,25a8.37,8.37,0,0,0,1.51-1.58c.84-1.09,1.6-2.61.8-3.92a2.06,2.06,0,0,0-3.3-.21,5.3,5.3,0,0,0-1.06,2.29,21.58,21.58,0,0,0-.51,2.64,19.93,19.93,0,0,0,0,6.07c.14.82,1.52.64,1.46-.2a31.74,31.74,0,0,1,0-5.16,24.6,24.6,0,0,1,.41-2.55,8.3,8.3,0,0,1,.67-2.36.92.92,0,0,1,1.7,0,2.46,2.46,0,0,1-.46,2.35,9.57,9.57,0,0,1-1.33,1.71,8.39,8.39,0,0,1-.84.74,6.31,6.31,0,0,1-1,.73c-.15.07,0,.33.12.27Z" transform="translate(0.02 -0.2)"/><path d="M130.44,30.61A21.12,21.12,0,0,1,132,27.85a9.77,9.77,0,0,1,1-1.19c.11-.1.37-.37.54-.34s0,0,0,0,0,.19,0,.25a19.26,19.26,0,0,0,.06,3.72,1.86,1.86,0,0,0,.92,1.36,1.54,1.54,0,0,0,1.46.1,3.94,3.94,0,0,0,1.24-1.2,4.5,4.5,0,0,0,.81-1.64.41.41,0,0,0-.79-.22,5.79,5.79,0,0,1-.91,1.65c-.27.31-.91.85-1.17.23l.09.33A8.52,8.52,0,0,0,135,30a6.54,6.54,0,0,1-.08-.88q0-.93-.06-1.86a3.14,3.14,0,0,0-.22-1.55,1.15,1.15,0,0,0-1.42-.46,3.34,3.34,0,0,0-1.22,1,10.39,10.39,0,0,0-.93,1.25,6,6,0,0,0-1,3,.18.18,0,0,0,.33.09Z" transform="translate(0.02 -0.2)"/><path d="M137.62,28.64a4,4,0,0,0,1.91-.6,4.9,4.9,0,0,0,1.57-1.21,1.37,1.37,0,0,0,0-1.63,1.59,1.59,0,0,0-1.47-.59,2.06,2.06,0,0,0-1.6,1,4.29,4.29,0,0,0-.63,2c-.17,1.33.31,3.11,1.79,3.5,1.72.45,3.06-1.29,4.14-2.34.31-.3-.14-.72-.46-.46s-.9.74-1.37,1.09a2.22,2.22,0,0,1-1.39.51,1.35,1.35,0,0,1-.89-.49.64.64,0,0,1-.14-.2.61.61,0,0,1-.07-.14s-.06-.12,0,0a2.38,2.38,0,0,1-.16-.7,7.08,7.08,0,0,1,.1-1.47,2.27,2.27,0,0,1,.45-1.22.87.87,0,0,1,1-.31.71.71,0,0,1,.09,1.14,12.19,12.19,0,0,1-3,1.85.16.16,0,0,0,.08.3Z" transform="translate(0.02 -0.2)"/><path d="M132.45,17.49a4.67,4.67,0,0,0-1.78.15,4.93,4.93,0,0,0-1.47.9,7.47,7.47,0,0,0-2,3.24c-.23.65-.4,1.31-.68,1.93a5.87,5.87,0,0,1-1.22,1.59,2.33,2.33,0,0,1-1.78.86,3,3,0,0,1-1.72-.75c-.21-.16-.42.14-.33.33.51,1.12,1.93,1.24,3,1.05a3.72,3.72,0,0,0,2.93-2.42c.53-1.3.69-2.73,1.35-4a4.69,4.69,0,0,1,1.45-1.76,3.55,3.55,0,0,1,2.25-.73.21.21,0,1,0,0-.41Z" transform="translate(0.02 -0.2)"/><path d="M229,16.53c-1.78-.75-3.7-2.43-3.61-4.55s2.32-3.56,4-4.54a16.77,16.77,0,0,1,11.8-2c1.88.39,3.81,1.07,4.48,3a4.86,4.86,0,0,1-1.27,4.84c-2.7,3.16-6.09,5.62-8.08,9.36-2.24,4.19-2.85,8.94-3.29,13.61-.25,2.72,4,2.72,4.27,0,.42-4.82,1.09-9.91,4.15-13.84,2.82-3.62,8.13-7.06,8-12.15S244.07,3.24,239.66,3a20,20,0,0,0-13.12,3.91c-1.88,1.45-3.53,3.55-2.88,6.06s2.76,3.59,5,4.4c.47.17.81-.62.34-.82Z" transform="translate(0.02 -0.2)"/></svg>